<svg width="66" height="19" viewBox="0 0 66 19" fill="none" xmlns="http://www.w3.org/2000/svg">
<path d="M3.98 15.336H10.928V18H0.752V0.647999H3.98V15.336ZM29.0335 9.324C29.0335 10.596 28.8215 11.776 28.3975 12.864C27.9735 13.944 27.3775 14.88 26.6095 15.672C25.8415 16.464 24.9175 17.084 23.8375 17.532C22.7575 17.972 21.5615 18.192 20.2495 18.192C18.9375 18.192 17.7375 17.972 16.6495 17.532C15.5695 17.084 14.6415 16.464 13.8655 15.672C13.0975 14.88 12.5015 13.944 12.0775 12.864C11.6535 11.776 11.4415 10.596 11.4415 9.324C11.4415 8.052 11.6535 6.876 12.0775 5.796C12.5015 4.708 13.0975 3.768 13.8655 2.976C14.6415 2.184 15.5695 1.568 16.6495 1.128C17.7375 0.68 18.9375 0.456 20.2495 0.456C21.5615 0.456 22.7575 0.68 23.8375 1.128C24.9175 1.576 25.8415 2.196 26.6095 2.988C27.3775 3.772 27.9735 4.708 28.3975 5.796C28.8215 6.876 29.0335 8.052 29.0335 9.324ZM25.7215 9.324C25.7215 8.372 25.5935 7.52 25.3375 6.768C25.0895 6.008 24.7295 5.364 24.2575 4.836C23.7855 4.308 23.2095 3.904 22.5295 3.624C21.8575 3.344 21.0975 3.204 20.2495 3.204C19.4015 3.204 18.6375 3.344 17.9575 3.624C17.2775 3.904 16.6975 4.308 16.2175 4.836C15.7455 5.364 15.3815 6.008 15.1255 6.768C14.8695 7.52 14.7415 8.372 14.7415 9.324C14.7415 10.276 14.8695 11.132 15.1255 11.892C15.3815 12.644 15.7455 13.284 16.2175 13.812C16.6975 14.332 17.2775 14.732 17.9575 15.012C18.6375 15.292 19.4015 15.432 20.2495 15.432C21.0975 15.432 21.8575 15.292 22.5295 15.012C23.2095 14.732 23.7855 14.332 24.2575 13.812C24.7295 13.284 25.0895 12.644 25.3375 11.892C25.5935 11.132 25.7215 10.276 25.7215 9.324ZM39.7528 15.624C40.4808 15.624 41.1128 15.56 41.6488 15.432C42.1928 15.296 42.7088 15.112 43.1968 14.88V11.724H41.0248C40.8168 11.724 40.6528 11.668 40.5328 11.556C40.4128 11.436 40.3528 11.292 40.3528 11.124V9.3H46.1248V16.32C45.6848 16.64 45.2248 16.92 44.7448 17.16C44.2728 17.392 43.7648 17.584 43.2208 17.736C42.6848 17.888 42.1088 18 41.4928 18.072C40.8768 18.152 40.2128 18.192 39.5008 18.192C38.2368 18.192 37.0728 17.972 36.0088 17.532C34.9448 17.092 34.0248 16.48 33.2488 15.696C32.4728 14.912 31.8648 13.976 31.4248 12.888C30.9928 11.8 30.7768 10.612 30.7768 9.324C30.7768 8.02 30.9888 6.824 31.4128 5.736C31.8368 4.648 32.4368 3.712 33.2128 2.928C33.9968 2.144 34.9448 1.536 36.0568 1.104C37.1688 0.671999 38.4168 0.456 39.8008 0.456C41.2168 0.456 42.4408 0.668 43.4728 1.092C44.5128 1.508 45.3928 2.052 46.1128 2.724L45.1768 4.188C44.9928 4.484 44.7488 4.632 44.4448 4.632C44.2528 4.632 44.0568 4.568 43.8568 4.44C43.6008 4.288 43.3368 4.136 43.0648 3.984C42.8008 3.832 42.5048 3.7 42.1768 3.588C41.8568 3.476 41.4928 3.384 41.0848 3.312C40.6848 3.24 40.2208 3.204 39.6928 3.204C38.8368 3.204 38.0608 3.348 37.3648 3.636C36.6768 3.924 36.0888 4.336 35.6008 4.872C35.1128 5.408 34.7368 6.052 34.4728 6.804C34.2088 7.556 34.0768 8.396 34.0768 9.324C34.0768 10.324 34.2168 11.216 34.4968 12C34.7768 12.776 35.1688 13.432 35.6728 13.968C36.1768 14.504 36.7768 14.916 37.4728 15.204C38.1688 15.484 38.9288 15.624 39.7528 15.624ZM65.9726 9.324C65.9726 10.596 65.7606 11.776 65.3366 12.864C64.9126 13.944 64.3166 14.88 63.5486 15.672C62.7806 16.464 61.8566 17.084 60.7766 17.532C59.6966 17.972 58.5006 18.192 57.1886 18.192C55.8766 18.192 54.6766 17.972 53.5886 17.532C52.5086 17.084 51.5806 16.464 50.8046 15.672C50.0366 14.88 49.4406 13.944 49.0166 12.864C48.5926 11.776 48.3806 10.596 48.3806 9.324C48.3806 8.052 48.5926 6.876 49.0166 5.796C49.4406 4.708 50.0366 3.768 50.8046 2.976C51.5806 2.184 52.5086 1.568 53.5886 1.128C54.6766 0.68 55.8766 0.456 57.1886 0.456C58.5006 0.456 59.6966 0.68 60.7766 1.128C61.8566 1.576 62.7806 2.196 63.5486 2.988C64.3166 3.772 64.9126 4.708 65.3366 5.796C65.7606 6.876 65.9726 8.052 65.9726 9.324ZM62.6606 9.324C62.6606 8.372 62.5326 7.52 62.2766 6.768C62.0286 6.008 61.6686 5.364 61.1966 4.836C60.7246 4.308 60.1486 3.904 59.4686 3.624C58.7966 3.344 58.0366 3.204 57.1886 3.204C56.3406 3.204 55.5766 3.344 54.8966 3.624C54.2166 3.904 53.6366 4.308 53.1566 4.836C52.6846 5.364 52.3206 6.008 52.0646 6.768C51.8086 7.52 51.6806 8.372 51.6806 9.324C51.6806 10.276 51.8086 11.132 52.0646 11.892C52.3206 12.644 52.6846 13.284 53.1566 13.812C53.6366 14.332 54.2166 14.732 54.8966 15.012C55.5766 15.292 56.3406 15.432 57.1886 15.432C58.0366 15.432 58.7966 15.292 59.4686 15.012C60.1486 14.732 60.7246 14.332 61.1966 13.812C61.6686 13.284 62.0286 12.644 62.2766 11.892C62.5326 11.132 62.6606 10.276 62.6606 9.324Z" fill="#3C64B1"/>
</svg>
